<svg width="24" height="24" viewBox="0 0 24 24" fill="none" xmlns="http://www.w3.org/2000/svg">
<g clip-path="url(#clip0)">
<path d="M0 12.3487C0.65641 10.2154 1.92821 8.57437 4.06154 7.6718C4.43077 7.5077 4.75897 6.97437 4.92308 6.56411C5.29231 5.7436 5.53846 4.88206 5.86667 4.02052C6.85128 1.64104 8.69744 0.410267 11.2821 0.246164C13.9487 0.123087 16.1641 0.984626 17.4769 3.44616C18.0103 4.4718 18.3385 5.5795 18.8308 6.60514C19.0359 7.01539 19.3641 7.54873 19.7333 7.6718C22.7692 8.53334 24.3282 11.159 23.4667 15.6718C23.2615 15.6718 23.0154 15.6718 22.7692 15.6718C20.3487 15.5898 20.3487 15.5898 19.6923 17.8462C19.3231 19.0359 18.5846 19.8154 17.5179 20.3898C16.8615 20.759 16.3692 21.3333 15.7538 21.8257C14.8103 22.5641 13.8256 23.2615 12.8821 24C12.1436 24 11.4051 24 10.6667 24C9.31282 23.4256 8.24615 22.6051 7.58974 21.2103C7.34359 20.718 6.72821 20.3077 6.19487 20.1436C4.34872 19.6513 3.40513 18.5846 3.44615 16.6564C3.48718 15.3846 2.62564 14.7692 1.4359 14.6462C0.984615 14.6051 0.533333 14.6051 0.0820513 14.6051C0 13.8256 0 13.0872 0 12.3487ZM2.21538 12.8C4.55385 13.2513 5.25128 14.9333 5.45641 17.0257C5.49744 17.3949 5.98974 17.8872 6.4 18.0513C7.75385 18.5846 8.82051 19.3231 9.55897 20.6359C10.5846 22.5231 12.841 22.5641 14.0308 20.759C14.6872 19.7744 15.4667 19.0359 16.5744 18.5436C17.0667 18.3385 17.6 17.641 17.7231 17.1077C18.1744 15.0564 19.1179 13.6615 21.3744 13.7846C21.7436 11.2821 21.2103 10.2974 19.0769 9.60001C18.0513 9.2718 17.3949 8.57437 17.0256 7.63078C16.7385 6.85129 16.4923 6.0718 16.1641 5.33334C15.2615 3.11796 13.9487 2.21539 11.6513 2.25642C9.4359 2.29745 8.1641 3.24104 7.38462 5.49745C7.17949 6.03078 7.01539 6.60514 6.85128 7.13847C6.44103 8.32821 5.82564 9.23078 4.55385 9.68206C3.24103 10.1744 2.46154 11.241 2.21538 12.8Z" fill="white"/>
<path d="M11.8564 7.50769C11.9385 6.76923 12.1846 5.90769 13.1693 5.86666C14.1949 5.82564 14.5641 6.60512 14.6052 7.50769C14.6462 8.41025 14.318 9.14871 13.3334 9.31282C12.5949 9.43589 11.8975 8.57435 11.8564 7.50769Z" fill="white"/>
<path d="M10.9538 7.58973C10.9128 8.49229 10.5436 9.31281 9.55897 9.27178C8.57436 9.23076 8.20513 8.36922 8.24615 7.50768C8.28718 6.64614 8.61539 5.7846 9.64103 5.82563C10.6667 5.86665 10.9128 6.72819 10.9538 7.58973Z" fill="white"/>
</g>
<defs>
<clipPath id="clip0">
<rect width="24" height="24" fill="white"/>
</clipPath>
</defs>
</svg>
